<svg width="347" height="339" viewBox="0 0 347 339" fill="none" xmlns="http://www.w3.org/2000/svg">
<g id="Bench">
<path d="M130.271 134.025C123.038 136.355 115.324 137.613 107.316 137.613C101.452 137.613 95.7462 136.938 90.2711 135.662V205.176C90.2711 208.472 91.0682 211.581 92.4802 214.322C95.7907 220.798 102.527 225.231 110.299 225.231H306.48V318.52C306.48 329.566 315.434 338.52 326.48 338.52C337.526 338.52 346.48 329.566 346.48 318.52V205.309C346.48 198.725 343.298 192.883 338.387 189.239C335.043 186.722 330.883 185.231 326.375 185.231H130.271V134.025Z" fill="white" fill-opacity="0.85"/>
<path d="M9.45556 258.919H282.644C287.457 258.919 291.338 254.913 291.338 249.737C291.338 244.563 287.457 240.389 282.644 240.389H9.45556C4.48849 240.389 0.763184 244.563 0.763184 249.737C0.763184 254.913 4.48849 258.919 9.45556 258.919Z" fill="white" fill-opacity="0.85"/>
<path d="M66.1092 192.601C66.1092 210.592 51.5253 225.176 33.5351 225.176C15.5449 225.176 0.960938 210.592 0.960938 192.601C0.960938 174.611 15.5449 160.027 33.5351 160.027C51.5253 160.027 66.1092 174.611 66.1092 192.601Z" fill="white" fill-opacity="0.85"/>
<path fill-rule="evenodd" clip-rule="evenodd" d="M107.316 125.267C141.806 125.267 169.765 97.3076 169.765 62.8181C169.765 28.3286 141.806 0.369385 107.316 0.369385C72.8267 0.369385 44.8675 28.3286 44.8675 62.8181C44.8675 97.3076 72.8267 125.267 107.316 125.267ZM107.316 75.0372C114.065 75.0372 119.535 69.5665 119.535 62.8179C119.535 56.0694 114.065 50.5986 107.316 50.5986C100.568 50.5986 95.0968 56.0694 95.0968 62.8179C95.0968 69.5665 100.568 75.0372 107.316 75.0372Z" fill="white" fill-opacity="0.85"/>
</g>
</svg>
