<svg width="400" height="405" viewBox="0 0 400 405" fill="none" xmlns="http://www.w3.org/2000/svg">
<g id="Squat">
<path d="M236.301 36.8889C236.301 57.4198 219.777 73.6107 199.747 73.6107C179.55 73.6107 163.359 57.4198 163.359 36.8889C163.359 16.8591 179.55 0.668213 199.747 0.668213C219.777 0.668213 236.301 16.8591 236.301 36.8889Z" fill="white" fill-opacity="0.85"/>
<path fill-rule="evenodd" clip-rule="evenodd" d="M163.192 248.8V158.404C163.192 155.4 160.368 152.151 157.387 154.924L129.929 189.926C123.913 197.825 115.908 201.777 107.563 197.438C103.347 195.33 100.379 191.513 99.1211 187.153C98.9293 186.64 98.7604 186.114 98.6159 185.575L82.6287 125.91H55.698V161.463C55.698 168.139 51.1914 172.813 44.5148 172.813H34.8335C28.1569 172.813 23.6502 168.139 23.6502 161.463V125.91H9.96304C4.62171 125.91 0.615723 121.904 0.615723 116.729C0.615723 111.555 4.62171 107.382 9.96304 107.382H23.6502V71.8287C23.6502 65.1522 28.1569 60.6452 34.8335 60.6452H44.5148C51.1914 60.6452 55.698 65.1522 55.698 71.8287V107.382H77.6642L75.8654 100.668C73.4353 91.5995 78.8172 82.2778 87.8862 79.8478C96.9551 77.4177 106.277 82.7996 108.707 91.8686L112.864 107.382H145.331C153.135 96.4346 165.237 90.1355 179.884 90.1355H219.777C234.423 90.1355 246.525 96.4346 254.33 107.382H285.338L289.482 91.9176C291.912 82.8486 301.234 77.4667 310.303 79.8968C319.372 82.3268 324.754 91.6485 322.324 100.717L320.538 107.382H343.962V71.8287C343.962 65.1522 348.468 60.6452 355.146 60.6452H364.994C371.671 60.6452 376.01 65.1522 376.01 71.8287V107.382H389.866C395.039 107.382 399.044 111.555 399.044 116.729C399.044 121.904 395.039 125.91 389.866 125.91H376.01V161.463C376.01 168.139 371.671 172.813 364.994 172.813H355.146C348.468 172.813 343.962 168.139 343.962 161.463V125.91H315.573L299.573 185.624C297.401 193.73 289.722 198.891 281.639 198.159C275.389 198.356 269.405 194.529 265.572 188.926C260.42 181.397 242.811 157.903 242.811 157.903C240.573 154.601 236.635 155.734 236.635 158.571V250.067L263.342 305.124C264.009 306.625 264.176 307.628 264.343 309.129L280.2 383.073C282.704 394.425 276.361 401.934 268.516 404.105C260.337 406.275 250.322 402.27 247.818 390.417L232.128 318.644L199.747 259.222L167.532 318.644L151.842 390.417C149.338 401.769 140.158 405.942 132.146 404.273C123.967 402.603 116.789 394.923 119.293 383.073L135.15 309.129C135.22 308.815 135.282 308.523 135.342 308.244C135.568 307.187 135.755 306.311 136.151 305.124L163.192 248.8ZM275.557 143.888L280.374 125.91H265.169L275.557 143.888ZM133.286 125.91L122.221 142.304L117.828 125.91H133.286Z" fill="white" fill-opacity="0.85"/>
</g>
</svg>
