<svg width="399" height="405" viewBox="0 0 399 405" fill="none" xmlns="http://www.w3.org/2000/svg">
<path id="Deadlift" d="M199.488 73.4626C219.518 73.4626 236.042 57.2717 236.042 36.7407C236.042 16.7109 219.518 0.52002 199.488 0.52002C179.291 0.52002 163.1 16.7109 163.1 36.7407C163.1 57.2717 179.291 73.4626 199.488 73.4626ZM162.933 198.316H236.376V158.423C236.376 155.585 240.883 154.25 242.552 157.755L289.122 252.397C293.296 260.743 303.309 264.248 311.656 259.908C319.666 255.902 323.173 245.72 319 237.374L257.742 113.356C250.397 98.6668 236.71 89.9873 219.518 89.9873H179.625C162.432 89.9873 148.745 98.6668 141.401 113.356L80.1425 237.374C75.9697 245.72 79.4748 255.902 87.4867 259.908C95.8326 264.248 105.681 260.743 109.854 252.397L156.757 157.755C158.426 154.25 162.933 155.251 162.933 158.256V198.316ZM131.887 404.125C139.899 405.794 149.079 401.621 151.583 390.269L167.273 318.495L199.488 259.073L231.869 318.495L247.56 390.269C250.063 402.122 260.078 406.127 268.257 403.957C276.102 401.786 282.445 394.277 279.941 382.925L264.084 308.981C263.917 307.479 263.75 306.477 263.083 304.975L243.387 249.058H155.923L135.893 304.975C135.392 306.477 135.225 307.479 134.891 308.981L119.034 382.925C116.53 394.775 123.708 402.455 131.887 404.125ZM34.4074 279.771H44.0887C50.7652 279.771 55.2719 275.097 55.2719 268.421V178.787C55.2719 172.11 50.7652 167.603 44.0887 167.603H34.4074C27.7308 167.603 23.224 172.11 23.224 178.787V268.421C23.224 275.097 27.7308 279.771 34.4074 279.771ZM354.72 279.771H364.568C371.245 279.771 375.583 275.097 375.583 268.421V178.787C375.583 172.11 371.245 167.603 364.568 167.603H354.72C348.042 167.603 343.536 172.11 343.536 178.787V268.421C343.536 275.097 348.042 279.771 354.72 279.771ZM9.53689 232.868H389.44C394.613 232.868 398.618 228.862 398.618 223.687C398.618 218.513 394.613 214.34 389.44 214.34H9.53689C4.19557 214.34 0.189575 218.513 0.189575 223.687C0.189575 228.862 4.19557 232.868 9.53689 232.868Z" fill="white" fill-opacity="0.85"/>
</svg>
